<svg xmlns="http://www.w3.org/2000/svg" width="26.802" height="33" viewBox="0 0 26.802 33">
  <g id="delete" transform="translate(0.003 0.001)">
    <path id="Path_1" data-name="Path 1" d="M223.265,154.7a.866.866,0,0,0-.867.867v16.377a.867.867,0,0,0,1.733,0V155.57A.866.866,0,0,0,223.265,154.7Zm0,0" transform="translate(-205.341 -145.299)" fill="rgba(74,63,63,0.84)"/>
    <path id="Path_2" data-name="Path 2" d="M105.265,154.7a.866.866,0,0,0-.867.867v16.377a.867.867,0,0,0,1.733,0V155.57A.866.866,0,0,0,105.265,154.7Zm0,0" transform="translate(-96.393 -145.299)" fill="rgba(74,63,63,0.84)"/>
    <path id="Path_3" data-name="Path 3" d="M2.192,9.823V28.864A4.264,4.264,0,0,0,3.325,31.8,3.806,3.806,0,0,0,6.087,33H20.709A3.8,3.8,0,0,0,23.47,31.8,4.264,4.264,0,0,0,24.6,28.864V9.823a2.952,2.952,0,0,0-.757-5.806H19.89V3.051A3.036,3.036,0,0,0,16.829,0H9.967A3.036,3.036,0,0,0,6.906,3.051v.966H2.949a2.952,2.952,0,0,0-.757,5.806Zm18.517,21.63H6.087a2.448,2.448,0,0,1-2.349-2.589V9.891H23.058V28.864A2.448,2.448,0,0,1,20.709,31.453ZM8.452,3.051A1.489,1.489,0,0,1,9.967,1.544h6.863a1.489,1.489,0,0,1,1.515,1.507v.966H8.452Zm-5.5,2.512h20.9a1.391,1.391,0,0,1,0,2.782H2.949a1.391,1.391,0,0,1,0-2.782Zm0,0" transform="translate(0 0)" fill="rgba(74,63,63,0.84)"/>
    <path id="Path_4" data-name="Path 4" d="M164.265,154.7a.866.866,0,0,0-.867.867v16.377a.867.867,0,0,0,1.733,0V155.57A.866.866,0,0,0,164.265,154.7Zm0,0" transform="translate(-150.867 -145.299)" fill="rgba(74,63,63,0.84)"/>
  </g>
</svg>
