<svg xmlns="http://www.w3.org/2000/svg" width="33.167" height="33" viewBox="0 0 33.167 33">
  <g id="edit" transform="translate(0 -0.261)">
    <path id="Path_5" data-name="Path 5" d="M30.612,56.667a.826.826,0,0,0-.826.826v7.334a2.481,2.481,0,0,1-2.478,2.478H4.13a2.481,2.481,0,0,1-2.478-2.478V43.3A2.481,2.481,0,0,1,4.13,40.824h7.334a.826.826,0,0,0,0-1.652H4.13A4.135,4.135,0,0,0,0,43.3V64.828a4.135,4.135,0,0,0,4.13,4.13H27.307a4.135,4.135,0,0,0,4.13-4.13V57.493A.826.826,0,0,0,30.612,56.667Zm0,0" transform="translate(0 -35.697)" fill="rgba(74,63,63,0.84)"/>
    <path id="Path_6" data-name="Path 6" d="M130.363,1.349a3.717,3.717,0,0,0-5.257,0L110.37,16.086a.826.826,0,0,0-.212.364l-1.938,7a.826.826,0,0,0,1.016,1.017l7-1.938a.826.826,0,0,0,.364-.212L131.333,7.576a3.721,3.721,0,0,0,0-5.257ZM112.17,16.623,124.231,4.562l3.89,3.89L116.059,20.513Zm-.777,1.559L114.5,21.29l-4.3,1.191ZM130.165,6.408l-.876.876-3.89-3.89.876-.876a2.065,2.065,0,0,1,2.92,0l.97.969A2.068,2.068,0,0,1,130.165,6.408Zm0,0" transform="translate(-99.253 0)" fill="rgba(74,63,63,0.84)"/>
  </g>
</svg>
