<svg id="logo" xmlns="http://www.w3.org/2000/svg" width="249.021" height="41.679" viewBox="0 0 249.021 41.679">
  <path id="logo-2" data-name="logo" d="M20.105,20.2H9.626L7.814,30.6H.684l5-28.364H25.463l-1.1,6.145H11.675l-.985,5.673H21.169Zm12.707,5.358a3.269,3.269,0,0,0,1.615-.394l-.2,4.452a6.419,6.419,0,0,1-4.215,1.536q-3.585,0-4.648-1.655a4.23,4.23,0,0,1-.709-2.324,13.575,13.575,0,0,1,.158-2.206l2.364-13.315h6.7L31.67,24.064a2.652,2.652,0,0,0-.039.433Q31.63,25.561,32.812,25.561ZM27.967,5.233a5.137,5.137,0,0,1,1.1-3.664A4.675,4.675,0,0,1,32.576.388q3.309,0,3.309,2.915a4.957,4.957,0,0,1-1.142,3.624A4.692,4.692,0,0,1,31.237,8.07Q27.967,8.07,27.967,5.233ZM56.546,15.752a4.048,4.048,0,0,1-.788,2.4H49.3a.922.922,0,0,0,.315-.788.961.961,0,0,0-.63-.867,3.269,3.269,0,0,0-1.615-.355q-2.955,0-2.955,1.812,0,.709,1.1,1.024a18.062,18.062,0,0,0,2.679.512,26.577,26.577,0,0,1,3.152.591,5.374,5.374,0,0,1,2.679,1.458,3.993,3.993,0,0,1,1.1,2.955,5.53,5.53,0,0,1-2.639,4.964q-2.6,1.694-7.6,1.694T37.873,29.54A4.2,4.2,0,0,1,36.3,26.073a7.476,7.476,0,0,1,.118-1.3l6.579-.079q-.079.552.63.985a4.759,4.759,0,0,0,2.167.394A5.513,5.513,0,0,0,47.84,25.8a1.162,1.162,0,0,0,.63-1.142q0-.552-1.1-.748a24.725,24.725,0,0,0-2.718-.394A27.762,27.762,0,0,1,41.458,23a5.242,5.242,0,0,1-2.679-1.5,4.129,4.129,0,0,1-1.1-2.994,6.328,6.328,0,0,1,2.758-5.515q2.8-1.93,8.036-1.93Q56.546,11.064,56.546,15.752ZM75.055,30.6H57.367l.985-5.515L69.461,17.17H59.73l.985-5.515H78.4l-.985,5.515L66.664,25.088h9.376Zm23.6-5.042a3.269,3.269,0,0,0,1.615-.394l-.2,4.452a6.859,6.859,0,0,1-4.53,1.536,5.141,5.141,0,0,1-3.979-1.418,10.582,10.582,0,0,1-1.97-4.767l-.118-.552q-.827.118-2.482.2L85.928,30.6h-6.7L84.51.7h6.7L88.922,13.664a8.089,8.089,0,0,1,6.3-2.561,5.18,5.18,0,0,1,3.939,1.339,4.738,4.738,0,0,1,1.3,3.506q0,4.255-4.452,6.658l.433,1.458A2.031,2.031,0,0,0,98.652,25.561Zm-6.815-9.1a4.828,4.828,0,0,0-3.782,2.009l-.433,2.6q5.83-.236,5.83-3.112a1.366,1.366,0,0,0-.433-1.064A1.518,1.518,0,0,0,91.837,16.461Zm19.955,9.1a3.269,3.269,0,0,0,1.615-.394l-.2,4.452A6.419,6.419,0,0,1,109,31.155q-3.585,0-4.648-1.655a4.23,4.23,0,0,1-.709-2.324,13.575,13.575,0,0,1,.158-2.206l2.364-13.315h6.7L110.65,24.064a2.652,2.652,0,0,0-.039.433Q110.611,25.561,111.792,25.561ZM106.947,5.233a5.137,5.137,0,0,1,1.1-3.664A4.675,4.675,0,0,1,111.556.388q3.309,0,3.309,2.915a4.957,4.957,0,0,1-1.142,3.624,4.692,4.692,0,0,1-3.506,1.142Q106.947,8.07,106.947,5.233Zm31.859,5.87q3.9,0,5.476,2.167a5.955,5.955,0,0,1,1.182,3.742,9.643,9.643,0,0,1-.2,1.891l-.788,4.412a8.753,8.753,0,0,1-3.506,5.83,11.853,11.853,0,0,1-7.091,2.009,10.838,10.838,0,0,1-6.539-1.694,4.388,4.388,0,0,1-1.812-3.742,7.476,7.476,0,0,1,.118-1.3L129.824.7h6.7l-2.009,11.464A7.821,7.821,0,0,1,138.806,11.1Zm-.355,8.391a7.384,7.384,0,0,0,.039-.867,1.961,1.961,0,0,0-.512-1.221q-.473-.67-2.127-.67a2.668,2.668,0,0,0-2.324.985L132.385,24.3a1.9,1.9,0,0,0,1.97,1.182,3.3,3.3,0,0,0,3.585-3.033Zm16.833,2.639a8.613,8.613,0,0,0-.118,1.418q0,1.891,2.127,1.891a3.771,3.771,0,0,0,2.876-1.221l2.206-12.567h6.7l-3.467,19.579a13.676,13.676,0,0,1-3.979,7.918,9.953,9.953,0,0,1-7.052,2.915q-3.979,0-5.752-1.458a4.751,4.751,0,0,1-1.733-3.821q0-3.348,4.136-5.948a3.624,3.624,0,0,1-2.836-2.245,6.024,6.024,0,0,1-.355-2.127,15.075,15.075,0,0,1,.2-2.4l2.206-12.409h6.7Zm.2,14.3q2.561,0,3.348-4.648l.394-2.285q-5.476,2.561-5.476,5.161a1.793,1.793,0,0,0,.433,1.261A1.682,1.682,0,0,0,155.481,36.433ZM193.6,30.6l.236-6.185h-6.579l-1.93,6.185H177.8L187.925,2.24h13l.158,28.364Zm-1.615-21.47L188.87,19.14h5.161l.433-10.006Zm25.63,9.376a1.48,1.48,0,0,0-1.655-1.694,3.4,3.4,0,0,0-2.679,1.221L211.073,30.6h-6.7l3.348-18.948h6.224l-.433,2.324a7.236,7.236,0,0,1,5.87-2.876q3.545,0,4.609,1.733a4.761,4.761,0,0,1,.67,2.521,16.6,16.6,0,0,1-.2,2.639L223.4,24.064a2.652,2.652,0,0,0-.039.433q0,1.064,1.182,1.064a3.269,3.269,0,0,0,1.615-.394l-.2,4.452a6.419,6.419,0,0,1-4.215,1.536q-5.358,0-5.358-4.491a9.918,9.918,0,0,1,.158-1.694l.945-5.239A7.588,7.588,0,0,0,217.612,18.509Zm23.544,0a1.48,1.48,0,0,0-1.655-1.694,3.4,3.4,0,0,0-2.679,1.221L234.617,30.6h-6.7l3.348-18.948h6.224l-.433,2.324a7.236,7.236,0,0,1,5.87-2.876q3.545,0,4.609,1.733a4.761,4.761,0,0,1,.67,2.521,16.6,16.6,0,0,1-.2,2.639l-1.064,6.067a2.651,2.651,0,0,0-.039.433q0,1.064,1.182,1.064a3.269,3.269,0,0,0,1.615-.394l-.2,4.452a6.419,6.419,0,0,1-4.215,1.536q-5.358,0-5.358-4.491a9.918,9.918,0,0,1,.158-1.694l.945-5.239A7.586,7.586,0,0,0,241.157,18.509Z" transform="translate(-0.684 -0.388)" fill="#fff"/>
</svg>
