<svg width="106" height="29" viewBox="0 0 106 29" fill="none" xmlns="http://www.w3.org/2000/svg">
<path d="M18.432 18.496H8.856L7.2 28H0.684L5.256 2.08H23.328L22.32 7.696H10.728L9.828 12.88H19.404L18.432 18.496ZM30.0443 23.392C30.5963 23.392 31.0883 23.272 31.5203 23.032L31.3403 27.1C30.2123 28.036 28.9283 28.504 27.4883 28.504C25.3043 28.504 23.8883 28 23.2403 26.992C22.8083 26.32 22.5923 25.612 22.5923 24.868C22.5923 24.1 22.6403 23.428 22.7363 22.852L24.8963 10.684H31.0163L29.0003 22.024C28.9763 22.168 28.9643 22.3 28.9643 22.42C28.9643 23.068 29.3243 23.392 30.0443 23.392ZM25.6163 4.816C25.6163 3.28 25.9523 2.164 26.6243 1.468C27.3203 0.747999 28.3883 0.387999 29.8283 0.387999C31.8443 0.387999 32.8523 1.276 32.8523 3.052C32.8523 4.564 32.5043 5.668 31.8083 6.364C31.1363 7.06 30.0683 7.408 28.6043 7.408C26.6123 7.408 25.6163 6.544 25.6163 4.816ZM51.7334 14.428C51.7334 15.22 51.4934 15.952 51.0134 16.624H45.1094C45.3014 16.48 45.3974 16.24 45.3974 15.904C45.3974 15.568 45.2054 15.304 44.8214 15.112C44.4374 14.896 43.9454 14.788 43.3454 14.788C41.5454 14.788 40.6454 15.34 40.6454 16.444C40.6454 16.876 40.9814 17.188 41.6534 17.38C42.3254 17.572 43.1414 17.728 44.1014 17.848C45.0614 17.968 46.0214 18.148 46.9814 18.388C47.9414 18.604 48.7574 19.048 49.4294 19.72C50.1014 20.392 50.4374 21.292 50.4374 22.42C50.4374 24.412 49.6334 25.924 48.0254 26.956C46.4414 27.988 44.1254 28.504 41.0774 28.504C38.0294 28.504 35.8934 28.012 34.6694 27.028C33.7094 26.26 33.2294 25.204 33.2294 23.86C33.2294 23.476 33.2654 23.08 33.3374 22.672L39.3494 22.6C39.3014 22.936 39.4934 23.236 39.9254 23.5C40.3814 23.74 41.0414 23.86 41.9054 23.86C42.7694 23.86 43.3934 23.776 43.7774 23.608C44.1614 23.416 44.3534 23.068 44.3534 22.564C44.3534 22.228 44.0174 22 43.3454 21.88C42.6734 21.736 41.8454 21.616 40.8614 21.52C39.9014 21.424 38.9294 21.268 37.9454 21.052C36.9854 20.836 36.1694 20.38 35.4974 19.684C34.8254 18.988 34.4894 18.076 34.4894 16.948C34.4894 14.764 35.3294 13.084 37.0094 11.908C38.7134 10.732 41.1614 10.144 44.3534 10.144C49.2734 10.144 51.7334 11.572 51.7334 14.428ZM68.6472 28H52.4832L53.3832 22.96L63.5352 15.724H54.6432L55.5432 10.684H71.7072L70.8072 15.724L60.9792 22.96H69.5472L68.6472 28ZM90.2118 23.392C90.7638 23.392 91.2558 23.272 91.6878 23.032L91.5078 27.1C90.3798 28.036 88.9998 28.504 87.3678 28.504C85.7358 28.504 84.5238 28.072 83.7318 27.208C82.9638 26.344 82.3638 24.892 81.9318 22.852L81.8238 22.348C81.3198 22.42 80.5638 22.48 79.5558 22.528L78.5838 28H72.4638L77.2878 0.675998H83.4078L81.3198 12.52C82.7358 10.96 84.6558 10.18 87.0798 10.18C88.7118 10.18 89.9118 10.588 90.6798 11.404C91.4718 12.196 91.8678 13.264 91.8678 14.608C91.8678 17.2 90.5118 19.228 87.7998 20.692L88.1958 22.024C88.4598 22.936 89.1318 23.392 90.2118 23.392ZM83.9838 15.076C82.6878 15.076 81.5358 15.688 80.5278 16.912L80.1318 19.288C83.6838 19.144 85.4598 18.196 85.4598 16.444C85.4598 16.036 85.3278 15.712 85.0638 15.472C84.8238 15.208 84.4638 15.076 83.9838 15.076ZM102.22 23.392C102.772 23.392 103.264 23.272 103.696 23.032L103.516 27.1C102.388 28.036 101.104 28.504 99.664 28.504C97.48 28.504 96.064 28 95.416 26.992C94.984 26.32 94.768 25.612 94.768 24.868C94.768 24.1 94.816 23.428 94.912 22.852L97.072 10.684H103.192L101.176 22.024C101.152 22.168 101.14 22.3 101.14 22.42C101.14 23.068 101.5 23.392 102.22 23.392ZM97.792 4.816C97.792 3.28 98.128 2.164 98.8 1.468C99.496 0.747999 100.564 0.387999 102.004 0.387999C104.02 0.387999 105.028 1.276 105.028 3.052C105.028 4.564 104.68 5.668 103.984 6.364C103.312 7.06 102.244 7.408 100.78 7.408C98.788 7.408 97.792 6.544 97.792 4.816Z" fill="white"/>
</svg>
